<?xml version="1.0" standalone="no"?>
<!DOCTYPE svg PUBLIC "-//W3C//DTD SVG 20010904//EN"
 "http://www.w3.org/TR/2001/REC-SVG-20010904/DTD/svg10.dtd">
<svg version="1.0" xmlns="http://www.w3.org/2000/svg"
 width="1024.000000pt" height="1024.000000pt" viewBox="0 0 1024.000000 1024.000000"
 preserveAspectRatio="xMidYMid meet">

<g transform="translate(0.000000,1024.000000) scale(0.100000,-0.100000)"
fill="#000000" stroke="none">
<path d="M4100 7063 c-174 -9 -337 -71 -457 -175 -117 -100 -192 -217 -239
-373 l-27 -90 0 -1080 0 -1080 22 -85 c60 -230 203 -407 406 -505 153 -73 181
-78 445 -85 129 -3 193 -7 143 -8 -51 -1 -93 -6 -93 -10 0 -5 24 -9 53 -8 39
0 51 -3 49 -14 -2 -11 0 -11 11 -1 8 6 33 13 55 16 36 4 40 2 37 -15 -2 -11 1
-23 7 -26 6 -4 8 -2 4 4 -3 6 2 16 11 22 17 11 17 11 0 6 -11 -4 -16 -2 -12 4
7 12 75 10 75 -2 0 -4 8 -4 17 -1 16 6 16 4 -1 -22 -13 -20 -14 -26 -4 -18 8
7 19 9 23 5 5 -4 5 -1 1 6 -4 6 -3 12 1 12 5 0 15 -6 22 -12 10 -11 12 -9 9 7
-2 11 -11 19 -19 17 -11 -3 -12 -1 -2 9 11 10 16 9 28 -7 11 -13 14 -14 13 -4
-2 9 5 16 17 16 45 4 48 7 10 14 -23 4 33 7 130 7 94 -1 140 -2 103 -4 -38 -2
-68 -8 -68 -13 0 -6 7 -10 15 -10 8 0 15 -6 15 -12 0 -7 5 -5 11 5 12 20 39
23 39 5 0 -8 3 -9 8 -3 8 11 42 16 42 6 0 -4 -6 -13 -12 -21 -7 -8 -4 -7 8 3
11 9 27 17 35 17 12 0 11 2 -1 10 -13 8 -13 10 2 10 9 0 19 -6 21 -12 4 -10 8
-10 15 1 12 17 33 6 26 -14 -4 -8 -11 -12 -17 -8 -6 3 -7 1 -3 -6 6 -8 15 -5
33 14 24 23 27 24 38 8 11 -15 13 -15 24 3 10 15 11 15 7 2 -3 -10 -1 -20 4
-23 6 -4 10 1 10 9 0 9 5 16 10 16 6 0 10 -7 10 -16 0 -8 5 -12 10 -9 6 4 7
12 3 18 -4 7 0 7 10 -1 14 -12 16 -11 12 7 -2 12 0 21 6 21 5 0 9 -10 9 -23 0
-13 7 -32 16 -43 14 -18 15 -18 4 4 -13 27 -6 42 21 42 11 0 19 -7 19 -17 1
-11 6 -7 14 12 10 24 13 26 19 12 4 -11 12 -14 23 -10 14 5 16 2 12 -14 -3
-12 0 -20 7 -20 7 0 10 8 8 17 -3 11 2 16 16 16 14 0 21 -7 21 -18 0 -10 5
-18 11 -18 6 0 8 9 4 23 -4 15 -3 18 3 8 7 -9 12 -10 16 -2 9 14 26 14 26 0 0
-5 -4 -7 -10 -4 -6 3 -7 -1 -4 -9 7 -19 25 -21 21 -3 -1 6 6 11 16 11 9 -1 17
3 17 8 0 6 7 8 15 5 8 -4 17 -2 20 3 3 5 -41 11 -107 13 -104 2 -101 3 40 5
127 2 152 0 152 -12 0 -8 5 -18 10 -21 6 -4 10 -3 9 2 -5 26 4 33 41 33 29 0
40 -4 40 -15 0 -9 6 -12 17 -8 12 5 14 3 8 -7 -6 -9 -4 -11 4 -6 7 5 10 14 7
22 -4 10 3 14 27 13 18 -1 24 -3 15 -6 -37 -10 -16 -18 40 -16 72 2 76 4 27
13 -23 4 48 8 166 9 178 1 216 4 273 22 37 11 77 18 89 15 12 -3 16 -3 8 0 -8
4 29 27 90 57 177 85 292 221 376 442 l38 100 0 1090 c0 1183 3 1123 -56 1273
-78 197 -242 358 -439 431 -125 46 -101 45 -1230 45 -591 1 -1095 0 -1120 -1z
m2250 -237 c158 -53 262 -144 306 -268 7 -22 10 -38 5 -36 -4 2 -35 35 -68 74
-100 116 -217 179 -360 194 -110 11 -2194 3 -2245 -9 -108 -25 -303 -202 -323
-293 -6 -26 -27 -43 -39 -31 -24 24 47 166 121 245 70 72 126 107 213 130 60
16 156 17 1200 15 1075 -2 1138 -3 1190 -21z m-2175 -106 c3 -5 1 -10 -4 -10
-6 0 -11 5 -11 10 0 6 2 10 4 10 3 0 8 -4 11 -10z m288 -20 c10 -10 9 -12 -4
-7 -14 5 -16 1 -9 -21 4 -15 12 -26 19 -24 10 2 15 -11 12 -31 -1 -5 3 -6 9
-2 5 3 10 -3 10 -14 0 -11 5 -31 11 -45 10 -21 15 -23 36 -15 19 7 24 6 21 -3
-3 -7 -10 -14 -16 -14 -7 -1 -18 -2 -24 -3 -9 -1 -9 -4 2 -12 12 -9 12 -10 -3
-5 -21 7 -80 -42 -70 -57 4 -6 1 -7 -6 -2 -9 5 -5 15 14 35 48 50 33 121 -35
159 -58 32 -105 28 -146 -13 -28 -28 -34 -42 -35 -77 -1 -41 -1 -42 -10 -17
-7 19 -15 25 -27 22 -9 -3 -6 2 8 10 14 8 19 15 13 16 -7 0 -13 5 -13 11 0 6
6 9 13 6 20 -7 39 27 24 43 -10 10 -8 12 6 7 13 -5 17 -1 17 18 0 14 5 25 11
25 6 0 9 -7 6 -14 -4 -10 -1 -13 9 -9 7 3 14 13 14 22 0 14 2 14 10 1 8 -12
10 -12 11 5 0 11 3 14 6 8 2 -7 12 -13 21 -12 11 0 12 2 5 6 -27 10 -11 18 33
17 25 -1 51 -7 57 -14z m-392 -13 c-10 -9 -11 -8 -5 6 3 10 9 15 12 12 3 -3 0
-11 -7 -18z m710 -19 c21 -11 40 -27 43 -35 8 -19 -5 -16 -32 10 -28 27 -97
29 -132 4 -33 -23 -60 -68 -60 -99 0 -49 99 -138 136 -124 9 3 12 1 9 -4 -3
-6 -15 -10 -26 -10 -15 0 -19 -7 -19 -31 0 -22 4 -30 13 -26 8 3 20 1 28 -4 8
-5 -116 -9 -308 -9 -184 0 -323 4 -323 9 0 5 18 8 40 6 31 -2 40 1 41 14 0 12
2 11 9 -4 6 -13 9 -15 9 -5 1 13 2 13 11 0 8 -12 10 -12 10 -1 0 11 3 11 15 1
13 -11 15 -8 16 16 l2 29 4 -27 c5 -30 21 -36 41 -16 10 10 15 10 23 -2 8 -11
12 -12 16 -2 2 6 10 9 16 5 7 -4 83 -8 170 -8 l157 -1 0 32 c0 25 -7 38 -30
54 -16 12 -41 41 -55 65 -14 24 -33 49 -42 57 -12 9 -15 9 -9 1 5 -9 0 -13
-16 -13 -18 0 -20 2 -8 10 13 8 12 10 -3 10 -10 0 -16 4 -13 9 4 5 2 21 -4 35
-6 18 -6 27 3 32 7 4 9 4 5 0 -3 -4 1 -16 10 -27 15 -17 17 -17 34 -2 14 13
21 14 30 5 9 -9 19 -5 44 19 18 17 47 35 66 39 18 4 35 8 37 9 2 1 21 -9 42
-21z m-563 -13 c-3 -3 -9 2 -12 12 -6 14 -5 15 5 6 7 -7 10 -15 7 -18z m52 9
c0 -2 -7 -4 -15 -4 -8 0 -15 4 -15 10 0 5 7 7 15 4 8 -4 15 -8 15 -10z m-227
-1 c3 -5 -15 -6 -39 -5 -37 3 -50 -1 -84 -28 -22 -18 -44 -45 -49 -63 -7 -26
-9 -28 -10 -9 -1 31 26 82 44 82 8 0 15 4 15 9 0 5 8 12 18 14 29 8 101 7 105
0z m78 -90 c12 -36 5 -83 -12 -83 -6 0 -6 7 1 21 14 25 6 62 -23 103 l-21 31
22 -19 c12 -10 26 -34 33 -53z m49 -63 c0 -5 -5 -10 -11 -10 -5 0 -7 5 -4 10
3 6 8 10 11 10 2 0 4 -4 4 -10z m-209 -80 c12 0 19 -7 19 -20 0 -19 -1 -19
-20 -2 -60 51 -80 72 -80 84 0 7 14 -4 31 -25 17 -20 39 -37 50 -37z m225 42
c-17 -16 -18 -16 -5 5 7 12 15 20 18 17 3 -2 -3 -12 -13 -22z m133 -29 c2 -2
2 -5 -1 -8 -2 -3 -20 12 -39 33 l-34 37 35 -30 c19 -17 37 -31 39 -32z m206
37 c3 -5 1 -10 -4 -10 -6 0 -11 5 -11 10 0 6 2 10 4 10 3 0 8 -4 11 -10z
m-425 -3 c0 -2 -10 -12 -22 -23 l-23 -19 19 23 c18 21 26 27 26 19z m170 -21
c0 -3 -4 -8 -10 -11 -5 -3 -10 -1 -10 4 0 6 5 11 10 11 6 0 10 -2 10 -4z m237
-18 c-3 -8 -6 -5 -6 6 -1 11 2 17 5 13 3 -3 4 -12 1 -19z m-275 -20 c-8 -8 -9
-4 -5 13 4 13 8 18 11 10 2 -7 -1 -18 -6 -23z m-187 12 c-3 -5 -18 -9 -33 -9
l-27 1 30 8 c17 4 31 8 33 9 2 0 0 -3 -3 -9z m253 -21 c3 -12 2 -12 -6 0 -6 8
-15 10 -22 6 -9 -5 -11 -4 -6 4 10 15 28 10 34 -10z m-670 -62 c12 -3 10 -5
-5 -6 -20 -1 -23 4 -22 32 2 29 2 29 6 5 2 -15 12 -29 21 -31z m672 28 c0 -8
-4 -15 -10 -15 -5 0 -7 7 -4 15 4 8 8 15 10 15 2 0 4 -7 4 -15z m-310 -25 c5
0 7 8 4 18 -5 15 -4 15 8 1 8 -9 28 -16 51 -16 20 0 40 -3 44 -6 3 -4 -50 -6
-118 -5 -68 1 -98 3 -66 5 45 3 57 8 58 21 1 15 2 15 6 0 2 -10 8 -18 13 -18z
m2749 -1130 c-5 -858 -7 -940 -23 -995 -55 -186 -193 -330 -375 -392 l-66 -22
-1100 -1 c-1205 0 -1148 -3 -1281 59 -70 33 -181 132 -218 196 -14 24 -40 85
-58 137 l-32 93 -5 415 c-3 228 -5 646 -3 927 l2 513 1583 2 c870 2 1582 3
1582 3 0 0 -2 -421 -6 -935z m-2111 -1637 c-21 -2 -55 -2 -75 0 -21 2 -4 4 37
4 41 0 58 -2 38 -4z"/>
<path d="M4408 6688 c2 -10 6 -18 8 -18 2 0 8 8 13 18 7 14 6 18 -8 18 -12 0
-17 -6 -13 -18z"/>
<path d="M4580 6611 c0 -6 4 -13 10 -16 6 -3 7 1 4 9 -7 18 -14 21 -14 7z"/>
<path d="M5110 5833 l-105 -4 -3 -582 c-3 -488 6 -853 20 -860 2 -1 55 -1 119
1 l116 3 -2 722 c-1 705 -2 722 -21 723 -10 0 -66 -1 -124 -3z"/>
<path d="M6175 5786 c-67 -30 -103 -103 -84 -171 19 -68 89 -125 154 -125 35
0 102 44 125 83 24 39 26 116 5 157 -30 59 -131 87 -200 56z"/>
<path d="M5685 5720 c-33 -11 -82 -23 -110 -26 l-50 -6 3 -159 4 -159 -71 0
-71 0 6 -97 c4 -54 8 -100 10 -101 1 -2 30 -6 63 -9 l61 -6 0 -271 c1 -295 3
-308 59 -389 61 -89 155 -123 296 -106 39 4 78 8 88 8 13 1 16 7 13 24 -3 12
-8 57 -11 100 l-7 77 -68 0 c-96 0 -112 15 -121 111 -10 93 -11 327 -3 397 l7
52 103 0 104 0 0 84 c0 46 3 91 6 99 4 13 -13 16 -104 22 l-109 7 -7 175 c-3
96 -4 179 0 184 8 14 -25 10 -91 -11z"/>
<path d="M4370 5608 c0 -27 -443 -1049 -506 -1168 -13 -25 -24 -48 -24 -51 0
-7 209 -1 245 6 15 3 30 30 59 105 21 55 42 103 47 106 4 2 90 5 190 5 l183 1
17 -34 c10 -18 32 -68 50 -110 l31 -78 113 0 c62 0 120 -3 129 -6 28 -11 18
21 -48 164 -35 75 -96 209 -134 297 -39 88 -105 237 -147 330 -42 94 -90 204
-107 245 -49 123 -80 190 -89 190 -5 0 -9 -1 -9 -2z m59 -656 c24 -51 41 -97
39 -104 -3 -7 -34 -11 -94 -10 -68 1 -88 4 -85 14 64 189 76 218 91 201 4 -4
26 -50 49 -101z"/>
<path d="M6213 5343 l-83 -4 0 -422 c0 -232 -3 -446 -6 -474 l-7 -53 134 0
134 0 0 480 0 480 -45 -2 c-25 -1 -82 -4 -127 -5z"/>
<path d="M6471 3641 c-11 -7 -11 -9 0 -14 10 -4 10 -6 2 -6 -7 -1 -13 -6 -13
-12 0 -8 4 -8 13 -2 6 6 20 9 29 8 11 -2 15 2 11 12 -4 11 -8 12 -13 2 -6 -9
-9 -8 -11 4 -3 11 -8 14 -18 8z"/>
<path d="M4840 3569 c0 -5 5 -7 10 -4 6 3 10 8 10 11 0 2 -4 4 -10 4 -5 0 -10
-5 -10 -11z"/>
<path d="M5590 3572 c0 -4 9 -8 20 -8 11 0 20 4 20 8 0 4 -9 8 -20 8 -11 0
-20 -4 -20 -8z"/>
<path d="M5718 3573 c6 -2 18 -2 25 0 6 3 1 5 -13 5 -14 0 -19 -2 -12 -5z"/>
<path d="M5946 3564 c-5 -14 -4 -15 9 -4 17 14 19 20 6 20 -5 0 -12 -7 -15
-16z"/>
<path d="M5980 3572 c0 -4 9 -8 20 -8 11 0 20 4 20 8 0 4 -9 8 -20 8 -11 0
-20 -4 -20 -8z"/>
<path d="M6035 3570 c3 -5 8 -10 11 -10 2 0 4 5 4 10 0 6 -5 10 -11 10 -5 0
-7 -4 -4 -10z"/>
<path d="M6064 3571 c3 -5 15 -7 26 -4 11 3 28 -1 37 -8 9 -8 14 -9 10 -3 -4
7 5 11 24 12 16 0 27 -3 25 -7 -3 -4 1 -8 9 -8 8 0 11 5 8 10 -4 6 0 8 9 5 8
-4 21 -2 29 3 9 5 -23 9 -84 9 -56 0 -96 -4 -93 -9z"/>
<path d="M4266 3553 c-4 -10 0 -23 11 -32 15 -15 16 -15 5 0 -7 9 -10 24 -6
33 3 9 4 16 1 16 -3 0 -8 -8 -11 -17z"/>
<path d="M4440 3539 c-13 -23 -12 -23 5 -9 17 14 18 13 11 -5 -5 -15 -4 -17 4
-8 8 7 9 17 2 29 -9 16 -11 15 -22 -7z"/>
<path d="M4543 3545 c-6 -6 -8 -18 -3 -24 5 -9 9 -5 13 10 7 28 6 31 -10 14z"/>
<path d="M4811 3544 c0 -11 3 -14 6 -6 3 7 2 16 -1 19 -3 4 -6 -2 -5 -13z"/>
<path d="M4290 3541 c0 -6 4 -12 8 -15 5 -3 9 1 9 9 0 8 -4 15 -9 15 -4 0 -8
-4 -8 -9z"/>
<path d="M4355 3540 c-3 -5 -1 -10 4 -10 6 0 11 5 11 10 0 6 -2 10 -4 10 -3 0
-8 -4 -11 -10z"/>
<path d="M4880 3541 c0 -6 4 -13 10 -16 6 -3 7 1 4 9 -7 18 -14 21 -14 7z"/>
<path d="M5112 3535 c-7 -8 -9 -15 -4 -15 5 0 15 7 22 15 16 19 -1 19 -18 0z"/>
<path d="M5906 3533 c-6 -14 -5 -15 5 -6 7 7 10 15 7 18 -3 3 -9 -2 -12 -12z"/>
<path d="M6050 3535 c0 -8 2 -15 4 -15 2 0 6 7 10 15 3 8 1 15 -4 15 -6 0 -10
-7 -10 -15z"/>
<path d="M5230 3529 c0 -5 5 -7 10 -4 6 3 10 8 10 11 0 2 -4 4 -10 4 -5 0 -10
-5 -10 -11z"/>
<path d="M5846 3528 c3 -5 10 -6 15 -3 13 9 11 12 -6 12 -8 0 -12 -4 -9 -9z"/>
<path d="M5825 3509 c-4 -6 -5 -12 -2 -15 2 -3 7 2 10 11 7 17 1 20 -8 4z"/>
<path d="M5326 3502 c-3 -5 1 -9 9 -9 8 0 12 4 9 9 -3 4 -7 8 -9 8 -2 0 -6 -4
-9 -8z"/>
</g>
</svg>
